PathFileType	4	(X/Y/Z)	C:\Users\italobelli\Desktop\GitHub\PTbot_officialCBL\Personal_Results\FLX03_noisy2.trc
DataRate	CameraRate	NumFrames	NumMarkers	Units	OrigDataRate	OrigDataStartFrame	OrigNumFrames
106.125000	106.125000	21	9	m	106.125000	319	850
Frame#	Time		gu		centelbow		EpL		centpxt8		centijc7		ij		ts		aa		ai
			X1	Y1	Z1	X2	Y2	Z2	X3	Y3	Z3	X4	Y4	Z4	X5	Y5	Z5	X6	Y6	Z6	X7	Y7	Z7	X8	Y8	Z8	X9	Y9	Z9

319	2.9965	-0.09297	0.057922	0.10784	0.034258	0.25449	0.20506	0.0085824	0.27168	0.19588	-0.046816	-0.15316	-0.008669	-0.046816	0.031938	-0.008669	0	0	0	-0.14589	-0.01835	0.055794	-0.12092	0.080167	0.11824	-0.11688	-0.077845	0.14802
320	3.0059	-0.093187	0.058013	0.1076	0.032672	0.25548	0.2046	0.0069264	0.27247	0.19521	-0.046816	-0.15316	-0.008669	-0.046816	0.031938	-0.008669	0	0	0	-0.14573	-0.018512	0.055717	-0.12125	0.080243	0.1179	-0.11674	-0.077628	0.14818
321	3.0153	-0.093411	0.058104	0.10735	0.031063	0.25647	0.20413	0.0052503	0.27325	0.19453	-0.046816	-0.15316	-0.008669	-0.046816	0.031938	-0.008669	0	0	0	-0.14557	-0.018675	0.055639	-0.12159	0.080319	0.11755	-0.1166	-0.077404	0.14835
322	3.0247	-0.093639	0.058196	0.1071	0.029428	0.25746	0.20364	0.0035519	0.27403	0.19385	-0.046816	-0.15316	-0.008669	-0.046816	0.031938	-0.008669	0	0	0	-0.14539	-0.018839	0.055561	-0.12195	0.080394	0.1172	-0.11645	-0.077173	0.14852
323	3.0342	-0.093873	0.058288	0.10685	0.027769	0.25845	0.20315	0.001833	0.27481	0.19315	-0.046816	-0.15316	-0.008669	-0.046816	0.031938	-0.008669	0	0	0	-0.1452	-0.019004	0.055482	-0.12232	0.080468	0.11683	-0.11631	-0.076936	0.14869
324	3.0436	-0.094112	0.058381	0.1066	0.026087	0.25944	0.20264	9.567e-05	0.27559	0.19245	-0.046816	-0.15316	-0.008669	-0.046816	0.031938	-0.008669	0	0	0	-0.14501	-0.01917	0.055403	-0.1227	0.080542	0.11647	-0.11616	-0.076693	0.14886
325	3.053	-0.094356	0.058473	0.10634	0.024386	0.26043	0.20213	-0.0016583	0.27637	0.19173	-0.046816	-0.15316	-0.008669	-0.046816	0.031938	-0.008669	0	0	0	-0.1448	-0.019336	0.055323	-0.12308	0.080616	0.1161	-0.11602	-0.076445	0.14903
326	3.0624	-0.094604	0.058566	0.10609	0.022667	0.26142	0.20161	-0.0034269	0.27715	0.19102	-0.046816	-0.15316	-0.008669	-0.046816	0.031938	-0.008669	0	0	0	-0.14459	-0.019503	0.055242	-0.12348	0.080689	0.11572	-0.11587	-0.076191	0.14921
327	3.0718	-0.094856	0.058659	0.10583	0.020931	0.2624	0.20108	-0.0052083	0.27793	0.19029	-0.046816	-0.15316	-0.008669	-0.046816	0.031938	-0.008669	0	0	0	-0.14436	-0.01967	0.055161	-0.12389	0.080762	0.11534	-0.11573	-0.075932	0.14938
328	3.0813	-0.095112	0.058752	0.10556	0.019181	0.26338	0.20054	-0.0070006	0.27871	0.18956	-0.046816	-0.15316	-0.008669	-0.046816	0.031938	-0.008669	0	0	0	-0.14413	-0.019838	0.05508	-0.12431	0.080834	0.11495	-0.11558	-0.075668	0.14955
329	3.0907	-0.095371	0.058845	0.1053	0.017419	0.26436	0.19999	-0.0088018	0.27948	0.18882	-0.046816	-0.15316	-0.008669	-0.046816	0.031938	-0.008669	0	0	0	-0.14389	-0.020005	0.054998	-0.12473	0.080906	0.11456	-0.11544	-0.0754	0.14973
330	3.1001	-0.095633	0.058938	0.10504	0.015647	0.26533	0.19945	-0.01061	0.28025	0.18808	-0.046816	-0.15316	-0.008669	-0.046816	0.031938	-0.008669	0	0	0	-0.14365	-0.020172	0.054917	-0.12516	0.080977	0.11417	-0.1153	-0.075127	0.1499
331	3.1095	-0.095899	0.059031	0.10478	0.013867	0.2663	0.19889	-0.012423	0.28102	0.18733	-0.046816	-0.15316	-0.008669	-0.046816	0.031938	-0.008669	0	0	0	-0.14339	-0.020339	0.054835	-0.1256	0.081048	0.11377	-0.11516	-0.074852	0.15008
332	3.119	-0.096166	0.059124	0.10451	0.01208	0.26726	0.19833	-0.01424	0.28178	0.18659	-0.046816	-0.15316	-0.008669	-0.046816	0.031938	-0.008669	0	0	0	-0.14314	-0.020505	0.054753	-0.12605	0.081119	0.11337	-0.11502	-0.074572	0.15025
333	3.1284	-0.096436	0.059218	0.10425	0.010289	0.26822	0.19777	-0.016058	0.28253	0.18584	-0.046816	-0.15316	-0.008669	-0.046816	0.031938	-0.008669	0	0	0	-0.14287	-0.02067	0.054672	-0.12649	0.081189	0.11297	-0.11488	-0.07429	0.15042
334	3.1378	-0.096708	0.059311	0.10399	0.0084959	0.26916	0.1972	-0.017876	0.28328	0.18508	-0.046816	-0.15316	-0.008669	-0.046816	0.031938	-0.008669	0	0	0	-0.1426	-0.020835	0.05459	-0.12695	0.081259	0.11257	-0.11475	-0.074005	0.1506
335	3.1472	-0.096981	0.059404	0.10372	0.0067022	0.2701	0.19663	-0.01969	0.28402	0.18433	-0.046816	-0.15316	-0.008669	-0.046816	0.031938	-0.008669	0	0	0	-0.14233	-0.020998	0.054509	-0.12741	0.081329	0.11217	-0.11461	-0.073718	0.15077
336	3.1567	-0.097255	0.059497	0.10346	0.0049101	0.27103	0.19605	-0.021501	0.28475	0.18357	-0.046816	-0.15316	-0.008669	-0.046816	0.031938	-0.008669	0	0	0	-0.14205	-0.021161	0.054428	-0.12787	0.081398	0.11177	-0.11448	-0.073428	0.15095
337	3.1661	-0.097531	0.05959	0.1032	0.0031217	0.27195	0.19548	-0.023305	0.28548	0.18282	-0.046816	-0.15316	-0.008669	-0.046816	0.031938	-0.008669	0	0	0	-0.14178	-0.021322	0.054347	-0.12833	0.081467	0.11137	-0.11435	-0.073137	0.15112
338	3.1755	-0.097807	0.059682	0.10294	0.0013388	0.27285	0.1949	-0.025101	0.28619	0.18207	-0.046816	-0.15316	-0.008669	-0.046816	0.031938	-0.008669	0	0	0	-0.14149	-0.021481	0.054267	-0.1288	0.081536	0.11096	-0.11422	-0.072844	0.1513
339	3.1849	-0.098083	0.059775	0.10269	-0.00043663	0.27375	0.19432	-0.026887	0.2869	0.18131	-0.046816	-0.15316	-0.008669	-0.046816	0.031938	-0.008669	0	0	0	-0.14121	-0.021639	0.054187	-0.12927	0.081604	0.11056	-0.1141	-0.072551	0.15147
